<svg xmlns="http://www.w3.org/2000/svg" version="1.1" viewBox="177.45490981963925 124.416 785.871743486974 714.24" style="max-height: 500px" width="785.871743486974" height="714.24">
<path transform="translate(0,0)" fill="#76A58E" d="M0 0 C379.5 0 759 0 1150 0 C1150 380.16 1150 760.32 1150 1152 C770.5 1152 391 1152 0 1152 C0 771.84 0 391.68 0 0 Z"/>
<path transform="translate(293,415)" fill="#1F4643" d="M0 0 C0.18175781 0.65226562 0.36351562 1.30453125 0.55078125 1.9765625 C1.97973083 6.94491028 3.58794423 11.40560806 6 16 C6 16.66 6 17.32 6 18 C6.66 18 7.32 18 8 18 C9.15625 19.65234375 9.15625 19.65234375 10.5 21.9375 C26.3611555 46.16456329 63.12078373 57.23740547 88.85455322 68.00564575 C116.74876757 79.68721648 144.30368037 92.16673914 166.7109375 112.90234375 C168.71647742 114.74018494 170.77359293 116.46227074 172.875 118.1875 C203.73355343 145.38276439 216.47489526 189.07136682 219.2734375 228.890625 C220.35697171 261.48409428 215.30866266 307.30754816 195 334 C190.21788909 337.27124109 185.73366594 337.52114126 180.125 337.6875 C179.34125 337.72166016 178.5575 337.75582031 177.75 337.79101562 C175.83381252 337.87280412 173.91693285 337.9380946 172 338 C174.58468933 333.17604065 177.29520834 328.50495985 180.3125 323.9375 C198.25300956 295.93470465 208.31752254 260.66347092 202.875 227.44140625 C200.04743374 216.32048718 193.62311522 207.36482373 186 199 C185.18982422 198.08541016 185.18982422 198.08541016 184.36328125 197.15234375 C173.99418222 186.10416015 160.51444508 177.74777299 148 169.375 C146.54396243 168.39368661 145.08823242 167.41191671 143.6328125 166.4296875 C125.25106982 154.00135193 125.25106982 154.00135193 106 143 C108.97208117 147.19715853 111.87394019 149.36627184 116.375 151.8125 C117.62631819 152.50517924 118.87761979 153.19788845 120.12890625 153.890625 C121.41909659 154.59406967 122.70946077 155.29719561 124 156 C136.30224047 162.75517659 146.7174153 170.39981911 157 180 C157.86496094 180.78761719 158.72992188 181.57523438 159.62109375 182.38671875 C174.22724698 196.22970577 184.80126726 213.74332285 193.33984375 231.83984375 C193.68265381 232.56421631 194.02546387 233.28858887 194.37866211 234.03491211 C195 236 195 236 194 239 C191.8125 240.09765625 191.8125 240.09765625 189 241.0625 C187.63875 241.54396484 187.63875 241.54396484 186.25 242.03515625 C156.36061807 250.90856651 118.88739292 242.6974948 91.96630859 228.10205078 C77.00974025 219.71939005 63.44031239 209.82204385 51 198 C50.4946875 197.52191895 49.989375 197.04383789 49.46875 196.55126953 C41.46919186 188.93390182 34.41887526 180.98749118 28 172 C27.59765137 171.43716309 27.19530273 170.87432617 26.78076172 170.29443359 C14 152.30537105 14 152.30537105 14 149 C13.34 149 12.68 149 12 149 C10.89324381 146.8137775 9.78955622 144.62609052 8.6875 142.4375 C8.37876953 141.82841797 8.07003906 141.21933594 7.75195312 140.59179688 C5.67154565 136.45288095 3.79942832 132.26853026 2 128 C1.443125 126.80375 0.88625 125.6075 0.3125 124.375 C-0.90793937 121.23672734 -1.30066346 119.30729808 -1 116 C-1.66 116 -2.32 116 -3 116 C-5.43046191 109.67162748 -6.59060025 103.76215448 -7 97 C-7.66 97 -8.32 97 -9 97 C-10.78626426 90.87566539 -11.60170051 84.78439584 -12.30224609 78.4609375 C-12.6929488 74.60756218 -12.6929488 74.60756218 -14 71 C-14.31346726 65.77914872 -14.29589777 60.54199903 -14.3125 55.3125 C-14.31511841 54.5374411 -14.31773682 53.7623822 -14.32043457 52.96383667 C-14.32459941 41.4012037 -13.69858605 30.03414667 -12.25 18.5625 C-12.09313721 17.25514893 -11.93627441 15.94779785 -11.7746582 14.60083008 C-11.60667725 13.39322021 -11.43869629 12.18561035 -11.265625 10.94140625 C-11.04567871 9.35888062 -11.04567871 9.35888062 -10.82128906 7.74438477 C-9.84458031 4.48065614 -8.63794943 3.11591891 -6 1 C-3 0 -3 0 0 0 Z"/>
<path transform="translate(809,375)" fill="#1F4643" d="M0 0 C5.18524281 2.32543774 6.91229386 5.71372447 9.390625 10.5546875 C9.7807074 11.29324982 10.17078979 12.03181213 10.57269287 12.79275513 C11.39235571 14.35120033 12.20556903 15.91305265 13.01269531 17.47802734 C14.24600576 19.86726215 15.50002406 22.24467017 16.7578125 24.62109375 C17.55332771 26.13997391 18.34763952 27.65948508 19.140625 29.1796875 C19.51350647 29.88817841 19.88638794 30.59666931 20.27056885 31.32662964 C22.09083357 34.8736797 23.48425312 37.99177095 24 42 C24.66 42 25.32 42 26 42 C26.84384675 43.41042956 27.67469496 44.82864132 28.5 46.25 C28.9640625 47.03890625 29.428125 47.8278125 29.90625 48.640625 C31 51 31 51 31 55 C31.66 55 32.32 55 33 55 C33.84384675 56.41042956 34.67469496 57.82864132 35.5 59.25 C35.9640625 60.03890625 36.428125 60.8278125 36.90625 61.640625 C38 64 38 64 38 68 C38.66 68 39.32 68 40 68 C41.01034498 69.74404788 42.00792422 71.49549561 43 73.25 C43.556875 74.22453125 44.11375 75.1990625 44.6875 76.203125 C46 79 46 79 46 83 C46.66 83 47.32 83 48 83 C48.84384675 84.41042956 49.67469496 85.82864132 50.5 87.25 C50.9640625 88.03890625 51.428125 88.8278125 51.90625 89.640625 C53 92 53 92 53 96 C53.66 96 54.32 96 55 96 C55.84384675 97.41042956 56.67469496 98.82864132 57.5 100.25 C57.9640625 101.03890625 58.428125 101.8278125 58.90625 102.640625 C60 105 60 105 60 109 C60.66 109 61.32 109 62 109 C63.15082685 111.24756784 64.29576858 113.49781748 65.4375 115.75 C65.76298828 116.38421875 66.08847656 117.0184375 66.42382812 117.671875 C69.80018492 124.35497299 70.18215619 129.44339174 70.1875 136.8125 C70.19974609 137.68970703 70.21199219 138.56691406 70.22460938 139.47070312 C70.23641418 144.73170927 69.71403603 149.02356081 68 154 C67.67 154.99 67.34 155.98 67 157 C66.34 157 65.68 157 65 157 C64.67 158.98 64.34 160.96 64 163 C63.34 163 62.68 163 62 163 C61.73751465 163.70688965 61.4750293 164.4137793 61.20458984 165.14208984 C59.92524575 168.17735575 58.4063479 170.8935193 56.7265625 173.7265625 C56.07268555 174.83128906 55.41880859 175.93601562 54.74511719 177.07421875 C54.03871965 178.25799646 53.33200691 179.44158613 52.625 180.625 C52.26651978 181.22747559 51.90803955 181.82995117 51.53869629 182.45068359 C45.6744688 192.30514538 39.65200221 202.04959022 33.46630859 211.70556641 C30.8143707 215.85523546 28.19034617 220.02255048 25.5625 224.1875 C25.07813477 224.95384766 24.59376953 225.72019531 24.09472656 226.50976562 C23.17480654 227.96550545 22.25661177 229.42233724 21.34033203 230.88037109 C20.42894789 232.32165289 19.50764596 233.75670067 18.57763672 235.18603516 C18.12791504 235.88390137 17.67819336 236.58176758 17.21484375 237.30078125 C16.81257568 237.91735596 16.41030762 238.53393066 15.99584961 239.16918945 C14.94619257 241.09892177 14.43844133 242.85516042 14 245 C13.34 245 12.68 245 12 245 C11.34 247.31 10.68 249.62 10 252 C9.34 252 8.68 252 8 252 C7.896875 252.70125 7.79375 253.4025 7.6875 254.125 C6.90640997 257.39137647 5.57941257 260.0471852 4 263 C3.34 263 2.68 263 2 263 C1.81824219 263.58007812 1.63648438 264.16015625 1.44921875 264.7578125 C-0.0418106 269.39147293 -1.68333576 273.69762355 -4 278 C-4.66 278 -5.32 278 -6 278 C-6.26514404 277.3287207 -6.53028809 276.65744141 -6.8034668 275.96582031 C-20.26673021 242.03369169 -36.21070873 209.61851768 -54.33203125 177.93310547 C-56.64028616 173.87406354 -58.91043217 169.79418038 -61.18212891 165.71459961 C-66.37324943 156.39296441 -71.65195951 147.13354147 -77.0625 137.9375 C-84.00470415 126.1141945 -90.57252319 114.10973892 -97 102 C-97.52899902 101.00516602 -98.05799805 100.01033203 -98.60302734 98.98535156 C-105.06577208 86.80320624 -111.27412436 74.54640397 -117 62 C-115.52843896 61.1710133 -114.05681396 60.34214004 -112.58496094 59.51367188 C-111.1959847 58.73166014 -109.80732995 57.94907721 -108.41894531 57.16601562 C-104.07493297 54.71894387 -99.72129119 52.29077754 -95.35546875 49.8828125 C-83.58622142 43.37308229 -71.98234972 36.64128756 -60.51019287 29.62316895 C-51.80466681 24.29772909 -43.06710188 19.03336488 -34.26843262 13.86294556 C-33.02691065 13.13318821 -31.78608093 12.4022516 -30.54602051 11.67001343 C-7.82117345 -1.74126311 -7.82117345 -1.74126311 0 0 Z"/>
<path transform="translate(464.5859375,201.659423828125)" fill="#1F4643" d="M0 0 C1.46914146 0.00084733 2.9382842 0.00036907 4.40742493 -0.00132751 C8.37594558 -0.00218477 12.34419167 0.01539701 16.31264877 0.03639436 C20.46728863 0.05520634 24.62193546 0.05691515 28.77661133 0.06047058 C36.63520845 0.06977781 44.49367968 0.09437359 52.35222149 0.12451905 C61.30264215 0.15810434 70.25306896 0.17455943 79.20353699 0.18960536 C97.60711674 0.22092439 116.01057948 0.27365904 134.4140625 0.34057617 C131.31257097 10.00061993 125.06535199 17.54307312 118.89477539 25.46240234 C109.47732875 37.57601366 101.3242468 50.20472507 93.4140625 63.34057617 C92.16568672 65.39545941 90.9169881 67.45014655 89.66796875 69.50463867 C77.99094356 88.78152817 66.72696438 108.28852506 55.8515625 128.02807617 C49.04834082 140.35124274 41.87825834 152.40741103 34.4140625 164.34057617 C33.81142578 165.30431152 33.20878906 166.26804687 32.58789062 167.26098633 C29.08412021 172.84755359 25.53635887 178.40292486 21.94921875 183.9362793 C20.54328518 186.13819306 19.19021355 188.36299838 17.8515625 190.60620117 C12.92599163 198.66243149 12.92599163 198.66243149 9.2890625 200.29370117 C-1.66617497 201.15446983 -14.02891967 192.03895313 -23.0234375 186.77807617 C-24.25598275 186.06490198 -25.48898153 185.35251107 -26.72241211 184.64086914 C-29.78235665 182.87389801 -32.8382218 181.10001511 -35.89294434 179.32403564 C-40.13741801 176.85842153 -44.39100202 174.40872457 -48.6484375 171.96557617 C-49.91167847 171.23939087 -49.91167847 171.23939087 -51.20043945 170.49853516 C-56.80033273 167.30069993 -62.47795213 164.29157665 -68.2109375 161.34057617 C-78.04516748 156.25511268 -87.3745816 150.47468206 -96.5859375 144.34057617 C-97.63910156 143.64577148 -98.69226563 142.9509668 -99.77734375 142.23510742 C-105.39946135 138.24947476 -105.39946135 138.24947476 -106.11328125 134.77026367 C-105.33169605 129.68706512 -102.97895227 125.77998654 -100.4609375 121.34057617 C-99.9246875 120.37796875 -99.3884375 119.41536133 -98.8359375 118.42358398 C-91.01666835 104.56419967 -82.26394232 91.29556557 -73.3984375 78.09057617 C-66.15361374 67.29511256 -59.36372297 56.26324523 -52.94921875 44.95385742 C-30.83300122 5.97043556 -30.83300122 5.97043556 -17.18699646 0.98575401 C-11.57340583 -0.40666513 -5.74844697 -0.04657078 0 0 Z"/>
<path transform="translate(711,216)" fill="#1F4643" d="M0 0 C0.83273437 0.66773438 1.66546875 1.33546875 2.5234375 2.0234375 C20.91857002 17.63318718 31.26101095 40.01181985 41.76171875 61.22265625 C42.19444092 62.09672119 42.62716309 62.97078613 43.07299805 63.87133789 C44 66 44 66 44 68 C45.75763672 67.7834375 45.75763672 67.7834375 47.55078125 67.5625 C56.07590275 66.54427706 64.39962537 65.73350065 73 66 C69.5288869 73.34261987 65.53172127 80.26672429 61.27203369 87.17755127 C59.38211803 90.24444969 57.50595782 93.3197486 55.62890625 96.39453125 C55.05151703 97.33948456 55.05151703 97.33948456 54.46246338 98.30352783 C50.45420193 104.87393535 46.53620996 111.49651845 42.625 118.125 C32.7494471 134.82019228 32.7494471 134.82019228 28.6875 141.5625 C28.24937988 142.30064941 27.81125977 143.03879883 27.35986328 143.79931641 C25.4428476 146.9606704 24.12076373 148.91949085 21 151 C5.20648734 154.37959082 -11.33306118 154.1505276 -27.40625 154.09765625 C-29.10974078 154.09578495 -30.81323211 154.09436443 -32.51672363 154.09336853 C-36.94213416 154.0895993 -41.36751046 154.07981873 -45.79290771 154.06866455 C-50.33198585 154.05832823 -54.87106967 154.05384507 -59.41015625 154.04882812 C-68.27345299 154.03818984 -77.13672221 154.0211831 -86 154 C-83.29006024 149.87230035 -80.57493615 146.36458583 -77.07421875 142.90625 C-75.79112272 140.99600881 -75.79112272 140.99600881 -76.0078125 138.4609375 C-77.46686779 133.37147693 -79.78996991 128.83336597 -82.1875 124.125 C-82.72286377 123.06563232 -83.25822754 122.00626465 -83.80981445 120.91479492 C-89.1572607 110.46939328 -95.03715074 100.36954452 -101.04492188 90.29394531 C-103.18832719 86.68270349 -105.3077741 83.05812883 -107.421875 79.4296875 C-108.18005715 78.1297797 -108.93827648 76.8298936 -109.6965332 75.5300293 C-110.80067574 73.63711558 -111.90456914 71.74406148 -113.00717163 69.85025024 C-114.03260113 68.09032064 -115.06100568 66.33215737 -116.08984375 64.57421875 C-116.73550293 63.46739746 -117.38116211 62.36057617 -118.04638672 61.22021484 C-120.50758843 57.16332275 -123.18815975 53.27286396 -125.94750977 49.41333008 C-127 47 -127 47 -126.30639648 44.41088867 C-125.87528564 43.61529541 -125.4441748 42.81970215 -125 42 C-124.51176758 41.09411133 -124.51176758 41.09411133 -124.01367188 40.16992188 C-122.84979382 38.27508489 -121.68318794 36.38286919 -120.5 34.5 C-120.06147705 33.8002002 -119.6229541 33.10040039 -119.17114258 32.37939453 C-114.84906215 25.58942389 -110.0674204 19.25123793 -105 13 C-104.1853125 11.98035156 -103.370625 10.96070313 -102.53125 9.91015625 C-93.8536276 -0.06643123 -81.66230435 -9.00031974 -69 -13 C-68.29101562 -13.22558594 -67.58203125 -13.45117188 -66.8515625 -13.68359375 C-44.12002805 -19.46617708 -18.00466324 -14.60555277 0 0 Z"/>
<path transform="translate(647,590)" fill="#1F4643" d="M0 0 C1.79371643 0.56088257 1.79371643 0.56088257 4 2 C4.81087646 3.68159644 5.61642168 5.36651435 6.36836338 7.07527733 C8.41694199 11.36198972 10.59776714 15.12291032 15.22764969 16.81334686 C22.14415144 18.10041393 29.19047215 17.752043 36.19140625 17.5859375 C38.46540663 17.58226013 40.73942466 17.58476301 43.01341248 17.59317017 C48.9776544 17.59870912 54.93794607 17.5206735 60.90130615 17.42486572 C66.99459203 17.34187473 73.08787502 17.33840387 79.18164062 17.328125 C91.12242062 17.29632075 103.06053802 17.17617143 115 17 C116.28418507 19.56127759 117.56760313 22.12293471 118.85058594 24.68481445 C119.21211761 25.40568489 119.57364929 26.12655533 119.94613647 26.86927032 C122.48038319 31.93171262 124.95445778 37.01153247 127.25 42.1875 C127.58008057 42.93016113 127.91016113 43.67282227 128.25024414 44.43798828 C131.03021757 50.82224156 133.20995063 57.26456 135 64 C135.1743457 64.59917236 135.34869141 65.19834473 135.52832031 65.81567383 C139.50825538 84.24656362 135.70225271 105.06858735 126 121 C113.66943088 138.9093044 95.6373574 148.48948743 75 154 C63.87358269 155.9502023 52.8888318 156.29094382 41.625 156.1875 C40.08423004 156.18063734 38.54345847 156.17412965 37.00268555 156.16796875 C26.64844783 156.10827354 16.32401234 155.83426362 6 155 C6.01160156 155.56775146 6.02320313 156.13550293 6.03515625 156.72045898 C6.09237459 161.61313796 5.81527818 166.22178579 5 171.0625 C4.814375 172.18785156 4.62875 173.31320312 4.4375 174.47265625 C4.293125 175.30667969 4.14875 176.14070312 4 177 C-2.16096847 176.06037223 -6.61595438 173.03413204 -10.47192383 168.12670898 C-14.62748007 161.80796605 -18.2182415 155.24622629 -21.75 148.5625 C-25.46079764 141.58891984 -29.17567638 134.62796059 -33.09326172 127.76806641 C-51.05877867 96.18991106 -51.05877867 96.18991106 -48 84 C-45.86192609 78.3426186 -43.03251689 73.22148155 -40 68 C-39.24396484 66.68660645 -39.24396484 66.68660645 -38.47265625 65.34667969 C-35.58227062 60.3370245 -32.65907132 55.34766821 -29.71875 50.3671875 C-25.99462498 44.03344238 -22.43019507 37.61708708 -18.875 31.1875 C-12.96820739 20.53364279 -6.64337322 10.20840684 0 0 Z"/>
<path transform="translate(398,557)" fill="#6D9C87" d="M0 0 C4.62706664 1.65961065 8.72013267 4.01241968 12.9375 6.5 C13.6809668 6.93779785 14.42443359 7.3755957 15.19042969 7.82666016 C24.25650654 13.24504255 32.79776329 19.34707467 41 26 C40.01 26.495 40.01 26.495 39 27 C36.59375 25.69921875 36.59375 25.69921875 33.5 23.6875 C27.28066207 19.70404715 20.88897555 16.12497246 14.35742188 12.6784668 C1.99794654 5.99383961 1.99794654 5.99383961 0 0 Z"/>
</svg>